<svg width="298" height="298" viewBox="0 0 298 298" fill="none" xmlns="http://www.w3.org/2000/svg">
<g clip-path="url(#clip0_1150_618)">
<path d="M80.3408 16.7285C59.6621 27.4743 41.7889 42.916 28.1543 61.8152C14.5198 80.7145 5.50327 102.546 1.82773 125.558H10.4697C66.1957 124.267 109.883 119.439 145.563 108.513C130.067 81.0369 111.154 54.0778 88.4663 26.6618L88.4464 26.642L80.3408 16.7285V16.7285ZM0.0397333 145.425L0 149.001C0 189.072 15.8139 225.448 41.5412 252.228L44.7397 245.791C44.9174 245.435 45.1165 245.09 45.3357 244.758C78.2747 194.654 115.545 164.854 157.225 151.484C160.046 150.57 162.907 149.736 165.767 148.981C162.43 141.33 158.873 133.778 155.099 126.333C116.061 138.909 69.136 144.074 10.8075 145.405H0.0596L0.0397333 145.425Z" fill="#444444" fill-opacity="0.8"/>
<path d="M56.8184 266.074C83.0683 286.803 115.552 298.053 149 298C166.741 298 183.766 294.901 199.521 289.219V274.915C194.673 236.473 186.15 201.21 173.336 167.556C169.959 168.39 166.602 169.344 163.284 170.397C127.087 182.019 93.2538 208.203 62.2618 255.187L56.8382 266.074H56.8184ZM219.387 280.359C238.592 270.054 255.306 255.667 268.355 238.211C281.404 220.755 290.472 200.652 294.92 179.317L283.696 174.251C251.392 164.754 221.295 160.861 193.243 164.019C205.918 198.19 214.44 234.069 219.308 273.048C219.367 273.445 219.387 273.842 219.387 274.279V280.359V280.359ZM297.682 158.775C300.305 119.75 287.418 81.268 261.822 51.6932L255.922 58.2294C232.678 86.4996 206.136 106.108 173.873 119.458C178.084 127.882 182.018 136.365 185.654 144.967C218.871 140.199 253.796 144.689 289.974 155.397C290.415 155.526 290.846 155.685 291.265 155.874L297.682 158.775V158.775ZM247.856 37.5084C220.625 13.2961 185.439 -0.0541685 149 0.000165196C131.557 0.000165196 114.829 2.98017 99.2734 8.5031L103.803 14.026C128.04 43.2896 148.145 72.2155 164.555 101.797C195.21 89.42 219.506 71.3215 240.724 45.4352C240.821 45.3136 240.92 45.1944 241.022 45.0776L247.856 37.5283V37.5084Z" fill="#444444" fill-opacity="0.8"/>
</g>
<defs>
<clipPath id="clip0_1150_618">
<rect width="298" height="298" fill="white"/>
</clipPath>
</defs>
</svg>
