<svg width="65" height="65" viewBox="0 0 65 65" fill="none" xmlns="http://www.w3.org/2000/svg">
<path d="M41.5243 23.4753C43.8705 23.4049 46.0969 22.4234 47.7315 20.739C49.3662 19.0546 50.2804 16.7997 50.2804 14.4525C50.2804 12.1053 49.3662 9.85042 47.7315 8.166C46.0969 6.48158 43.8705 5.5001 41.5243 5.42969H23.476C21.1299 5.5001 18.9034 6.48158 17.2688 8.166C15.6342 9.85042 14.7199 12.1053 14.7199 14.4525C14.7199 16.7997 15.6342 19.0546 17.2688 20.739C18.9034 22.4234 21.1299 23.4049 23.476 23.4753C21.1094 23.5163 18.8535 24.4852 17.1943 26.1734C15.5352 27.8615 14.6055 30.1338 14.6055 32.5008C14.6055 34.8678 15.5352 37.1401 17.1943 38.8283C18.8535 40.5164 21.1094 41.4854 23.476 41.5264C21.1209 41.5841 18.8817 42.5601 17.2364 44.2462C15.5912 45.9323 14.6702 48.1947 14.6702 50.5505C14.6702 52.9063 15.5912 55.1688 17.2364 56.8548C18.8817 58.5409 21.1209 59.517 23.476 59.5747C25.8694 59.5733 28.1643 58.6217 29.8564 56.929C31.5485 55.2364 32.4994 52.9412 32.5002 50.5478V23.4753H41.5243Z" fill="#DCBEA6"/>
<path d="M41.5242 41.5249C46.5081 41.5249 50.5483 37.4846 50.5483 32.5007C50.5483 27.5168 46.5081 23.4766 41.5242 23.4766C36.5403 23.4766 32.5 27.5168 32.5 32.5007C32.5 37.4846 36.5403 41.5249 41.5242 41.5249Z" fill="#DCBEA6"/>
</svg>
