<svg width="298" height="221" viewBox="0 0 298 221" fill="none" xmlns="http://www.w3.org/2000/svg">
<path d="M249.259 7.30804L230.194 21.9545L149.018 81.2727L67.8427 21.3686L48.7775 6.72218C44.2861 3.06855 38.8033 0.790951 33.0084 0.171552C27.2134 -0.447847 21.361 0.618178 16.1762 3.23755C10.9914 5.85693 6.70201 9.91455 3.83946 14.9077C0.976912 19.9009 -0.333001 25.6102 0.0720065 31.3283V201.081C0.0720065 206.364 2.20619 211.43 6.00506 215.166C9.80394 218.901 14.9563 221 20.3287 221H67.8427V107.929L149.018 167.833L230.194 107.929V221H277.708C283.081 221 288.233 218.901 292.032 215.166C295.831 211.43 297.965 206.364 297.965 201.081V31.3283C298.245 25.6595 296.844 20.0329 293.932 15.1325C291.021 10.2321 286.725 6.26882 281.565 3.7245C276.406 1.18017 270.607 0.164365 264.872 0.800543C259.136 1.43672 253.713 3.69749 249.259 7.30804V7.30804Z" fill="#444444" fill-opacity="0.8"/>
</svg>
