<svg width="65" height="65" viewBox="0 0 65 65" fill="none" xmlns="http://www.w3.org/2000/svg">
<path fill-rule="evenodd" clip-rule="evenodd" d="M65 65H0V0H65V65ZM51.595 27.5506V22.5093C50.7647 22.1396 46.0102 20.7796 42.2541 22.2129C36.8433 24.2774 37.0377 30.4968 39.0909 32.9377C41.7512 36.1004 48.3689 37.2795 47.286 40.3838C46.7252 41.9913 44.1073 42.2711 41.7993 41.7314C39.65 41.2289 37.7813 39.9558 37.7813 39.9558V45.2936C37.7813 45.2936 39.6284 46.3234 41.8955 46.5684C44.8019 46.8824 48.4449 46.2895 50.27 44.6673C53.5187 41.7795 54.0177 35.3823 47.8611 32.4118C42.7379 29.94 42.8222 29.2345 42.8581 27.9666C42.9063 26.2685 46.4717 25.2232 51.595 27.5506V27.5506ZM23.9675 13.4031C28.2302 13.5514 34.4947 15.516 34.4947 23.8932C34.4947 32.2705 26.83 35.0194 19.8363 34.4204V46.282H14.6263V13.5142C14.6263 13.5142 19.7045 13.2548 23.9674 13.4031H23.9675ZM25.3204 29.231C27.567 28.4112 29.0272 26.649 29.0272 23.9116C29.0272 21.0093 27.5412 19.044 25.2685 18.4888C22.8074 17.8874 19.8363 18.2419 19.8363 18.2419V29.6733C19.8363 29.6733 23.9489 29.7314 25.3204 29.231V29.231Z" fill="#DCBEA6"/>
</svg>
