<svg width="66" height="65" viewBox="0 0 66 65" fill="none" xmlns="http://www.w3.org/2000/svg">
<g clip-path="url(#clip0_1119_606)">
<path d="M51.7962 0.8125H14.2037C10.4367 0.8125 6.8239 2.28629 4.16018 4.90965C1.49646 7.53301 0 11.0911 0 14.801L0 50.199C0 53.909 1.49646 57.467 4.16018 60.0904C6.8239 62.7137 10.4367 64.1875 14.2037 64.1875H51.7962C55.5633 64.1875 59.1761 62.7137 61.8398 60.0904C64.5035 57.467 66 53.909 66 50.199V14.801C66 11.0911 64.5035 7.53301 61.8398 4.90965C59.1761 2.28629 55.5633 0.8125 51.7962 0.8125V0.8125ZM35.0048 45.4756H28.7155C28.2755 45.4756 27.962 45.4594 27.786 45.1696C27.1948 44.0348 26.6035 42.9081 26.015 41.7896C25.4065 40.6387 24.7794 39.4975 24.134 38.3663C23.4635 37.1954 22.8062 36.0172 22.1623 34.8319H22.1183C21.5222 36.0029 20.9098 37.1658 20.2812 38.3202C19.6487 39.4821 19.019 40.6385 18.4002 41.7869C17.7821 42.9361 17.1486 44.0773 16.5 45.2102C16.379 45.4729 16.1727 45.5 15.8757 45.5H9.812C9.69375 45.5 9.62775 45.546 9.614 45.4296C9.59809 45.3231 9.6215 45.2145 9.68 45.1235L18.2242 31.2975L9.9 17.4363C9.80925 17.3198 9.7955 17.225 9.856 17.1465C9.88855 17.1089 9.92972 17.0794 9.9761 17.0606C10.0225 17.0417 10.0727 17.034 10.1227 17.0381H16.3653C16.5013 17.0326 16.637 17.0547 16.764 17.1031C16.8694 17.1628 16.9597 17.2452 17.028 17.3442C17.5587 18.5088 18.15 19.6706 18.799 20.8325C19.448 21.9944 20.1053 23.1427 20.768 24.2775C21.4308 25.4123 22.044 26.5606 22.605 27.7225H22.649C23.2348 26.5308 23.8315 25.369 24.442 24.2342C25.0525 23.0994 25.6713 21.9592 26.301 20.8108C26.9363 19.6598 27.5468 18.5169 28.138 17.3875C28.1709 17.2786 28.2314 17.1798 28.314 17.1004C28.4238 17.0466 28.5467 17.0241 28.6688 17.0354H34.4685C34.5337 17.0198 34.6026 17.0301 34.6602 17.064C34.7179 17.098 34.7596 17.1529 34.7765 17.2169C34.7881 17.2629 34.7862 17.3112 34.7711 17.3563C34.756 17.4013 34.7284 17.4412 34.6912 17.4715L34.694 17.4823L26.4578 30.8696L35.2687 45.0856C35.3265 45.1858 35.3402 45.3023 35.3127 45.4133C35.2852 45.5108 35.1835 45.4458 35.0048 45.4756V45.4756ZM56.1275 44.3381C54.6881 44.9286 53.1893 45.3671 51.656 45.6463C50.2528 45.9029 48.8289 46.0343 47.4017 46.039C45.3645 46.0684 43.3461 45.6522 41.492 44.8202C39.7646 44.0325 38.3206 42.7472 37.3505 41.1342C36.2844 39.2522 35.7632 37.1182 35.8435 34.9646C35.8271 32.9632 36.3469 30.993 37.3505 29.2527C38.3844 27.4798 39.9046 26.0296 41.7368 25.0683C44.0521 23.8767 46.6574 23.3405 49.2635 23.5192C49.5 23.5327 49.7805 23.5544 50.105 23.5842V14.9933C50.105 14.7902 50.193 14.6873 50.3717 14.6873H55.9487C56.0107 14.6788 56.0736 14.6948 56.1236 14.7319C56.1736 14.7689 56.2066 14.824 56.2155 14.885C56.2183 14.9066 56.2183 14.9284 56.2155 14.95V40.7252C56.2155 41.2208 56.2375 41.7571 56.2815 42.3394C56.3255 42.919 56.364 43.4417 56.3915 43.9075C56.3972 43.9972 56.375 44.0865 56.3279 44.1635C56.2807 44.2404 56.2108 44.3014 56.1275 44.3381V44.3381ZM49.3707 28.5973C49.6182 28.6217 49.863 28.665 50.1022 28.7273V40.6304C49.7852 40.7233 49.4587 40.7814 49.1287 40.8038C48.7455 40.8342 48.361 40.8486 47.9765 40.8471C47.2017 40.8506 46.4312 40.7327 45.694 40.4977C44.997 40.2816 44.3606 39.9089 43.835 39.409C43.2867 38.8648 42.8637 38.2108 42.5948 37.4915C42.2652 36.5972 42.1076 35.6503 42.13 34.6992C42.072 33.4869 42.3884 32.2858 43.0375 31.2542C43.6232 30.3983 44.4235 29.7077 45.3613 29.2473C46.3238 28.7788 47.3852 28.5377 48.4605 28.5485C48.7657 28.554 49.0682 28.5675 49.3707 28.5973Z" fill="#DCBEA6"/>
</g>
<defs>
<clipPath id="clip0_1119_606">
<rect width="66" height="65" fill="white"/>
</clipPath>
</defs>
</svg>
