<svg width="65" height="66" viewBox="0 0 65 66" fill="none" xmlns="http://www.w3.org/2000/svg">
<path d="M32.5 0C14.5458 0 0 14.7696 0 33C0 51.2304 14.5458 66 32.5 66C50.4542 66 65 51.2304 65 33C65 14.7696 50.4542 0 32.5 0ZM18.852 21.12C20.8934 21.12 22.4819 22.6318 22.6606 24.4179C22.8536 26.0287 22.1955 27.4374 20.4405 28.2851C19.5081 28.7574 19.1384 28.7574 18.9475 28.4769C18.852 28.2851 18.9475 28.1036 19.1364 27.9077C20.8102 26.5031 20.8102 25.3646 20.6172 23.7641C20.5217 22.7226 19.7823 22.0646 19.0409 22.0646C15.7828 22.0646 11.1495 29.4133 11.7934 34.7944C12.0798 36.8672 13.2864 39.3174 15.8783 39.3174C16.7152 39.3174 17.6475 39.0369 18.4803 38.6636C19.8352 37.9314 20.6497 37.3746 21.4541 36.4609C21.253 34.0209 23.3573 30.8323 26.4672 30.8323C27.8647 30.8323 28.9758 31.4016 29.0692 32.4431C29.25 33.8518 28.0434 34.0436 27.6737 34.0436C27.302 34.0436 26.648 33.9467 26.648 33.5713C26.5647 33.1939 27.4828 33.3795 27.3975 32.5298C27.302 31.9605 26.7414 31.779 26.193 31.779C24.2348 31.779 23.1238 34.518 23.4 36.2031C23.4955 36.9641 23.8631 37.719 24.6167 37.719C25.1672 37.719 26.0041 36.8693 26.2762 35.6462C26.4652 34.7964 27.2086 34.2272 27.8627 34.2272C28.1389 34.2272 28.3177 34.3241 28.4131 34.6995V35.0769C28.3298 35.4544 28.0414 36.5929 28.1389 36.8692C28.1389 37.0652 28.2344 37.3416 28.602 37.3416C28.8458 37.3416 29.7781 36.8466 30.7084 36.0731C31.0152 34.4499 31.3848 32.5071 31.3848 32.3462C31.4803 31.68 31.7566 31.0241 33.0566 31.0241C33.3409 31.0241 33.5217 31.1211 33.6172 31.4964V31.8739L33.2455 33.5713C34.4541 31.9708 36.2192 30.8426 37.3303 30.8426C37.7955 30.8426 38.1672 31.1211 38.1672 31.5934C38.1672 31.8739 38.1672 32.3462 37.9742 32.8206C37.6066 33.8518 37.1394 35.4626 36.8631 36.8692C36.8631 37.2467 36.9586 37.6221 37.4237 37.6221C37.8889 37.6221 39.2762 37.0631 40.3873 35.5493L40.4097 35.5389C40.4097 35.3554 40.3873 35.1739 40.3873 34.9924C40.3873 33.8539 40.4828 32.9196 40.6738 32.2534C40.8627 31.5006 41.7848 30.8447 42.3455 30.8447C42.6197 30.8447 42.9061 31.0262 42.9061 31.3067C42.9061 31.4036 42.9061 31.5954 42.8106 31.6841C42.4389 32.9196 42.1525 34.0457 42.1525 35.1739C42.1525 35.8401 42.25 36.7744 42.4389 37.3436C42.4389 37.4406 42.5222 37.5354 42.6177 37.5354C42.8106 37.5354 44.1106 36.3124 45.0308 34.6995C44.1939 34.1406 43.7287 33.1959 43.7287 32.0678C43.7287 30.0816 44.9475 29.0482 46.0586 29.0482C46.9909 29.0482 47.7303 29.7062 47.7303 31.0262C47.7303 31.8759 47.4541 32.8226 46.9909 33.6682H47.2652C47.8583 33.6909 48.4413 33.4434 48.8414 33.0144C48.9298 32.8709 49.0596 32.7586 49.2131 32.6927C50.1231 31.5212 51.4556 30.6529 53.0319 30.6529C54.3319 30.6529 55.5283 31.2221 55.6238 32.2534C55.8127 33.6703 54.598 33.9508 54.2262 33.9508C53.8586 33.9508 53.2025 33.8539 53.2025 33.4785C53.2025 33.1031 54.0373 33.2867 53.952 32.4473C53.8566 31.878 53.2959 31.6862 52.7353 31.6862C50.8828 31.6862 49.6783 34.1344 49.9505 36.1226C50.0459 36.8734 50.4156 37.7231 51.1591 37.7231C51.7197 37.7231 52.5545 36.8734 52.9242 35.6503C53.103 34.8996 53.8566 34.2313 54.5005 34.2313C54.7848 34.2313 54.9656 34.3283 55.0611 34.7036C55.0611 34.8996 55.0611 35.2729 54.6894 36.5001C54.2242 37.3478 54.2242 37.8201 54.3217 38.1975C54.405 38.9483 54.7767 39.5175 55.1566 39.798C55.2244 39.8855 55.2849 39.9786 55.3373 40.0764C55.3373 40.2724 55.2398 40.4642 54.9656 40.4642C54.8702 40.4642 54.7848 40.4642 54.6894 40.3673C53.2939 39.798 52.7333 38.8513 52.5525 37.9067C51.9919 38.5729 51.348 38.9483 50.5964 38.9483C49.3878 38.9483 48.1934 37.8201 48.0045 36.4011C47.9468 35.7993 48.0153 35.192 48.2056 34.6191C47.6552 34.9738 47.062 35.178 46.5136 35.178H46.0586C44.8419 36.9703 43.5398 38.1975 42.6197 38.7564C42.3028 38.9279 41.9526 39.0265 41.5939 39.0452C41.4152 39.0452 41.1308 38.9483 41.0434 38.7564C40.7814 38.3378 40.6209 37.6819 40.5153 36.9311C39.2133 38.3687 37.4136 39.1421 36.5808 39.1421C35.6484 39.1421 35.1 38.5729 35.0045 37.6303V36.5991C35.2787 34.5263 36.0303 33.2908 36.0303 32.9134C36.0249 32.8637 36.0027 32.8175 35.9675 32.7825C35.9324 32.7476 35.8864 32.726 35.8373 32.7216C35.1934 32.7216 33.0566 34.9882 32.6848 36.5021L32.4005 37.7252C32.2197 38.5729 31.3848 39.1421 30.8242 39.1421C30.548 39.1421 30.3591 39.0452 30.2738 38.6719V38.2944L30.3895 37.6509C29.2134 38.4986 28.0394 39.0452 27.4787 39.0452C26.6439 39.0452 26.1788 38.5729 26.0955 37.9067C25.5348 38.6719 24.8869 39.0452 24.0541 39.0452C23.0892 39.0452 22.1609 38.379 21.7161 37.4137C21.0478 38.1748 20.2963 38.9379 19.4086 39.5175C18.1086 40.3672 16.6278 41.0211 14.8586 41.0211C13.2823 41.0211 11.8869 40.1713 11.1455 39.4206C10.0242 38.379 9.38031 36.7785 9.28484 35.2729C8.73438 30.6549 11.5172 24.7129 15.7788 22.0708C16.8045 21.5016 17.8323 21.1283 18.848 21.1283L18.852 21.12ZM45.3111 30.1764C45.0369 30.1764 44.848 30.6488 44.848 31.1087C44.848 31.8739 45.2156 32.7195 45.6828 33.1939C45.8691 32.6777 45.966 32.1328 45.9692 31.5831C45.9692 30.6508 45.5975 30.1785 45.3111 30.1785V30.1764Z" fill="#DCBEA6"/>
</svg>
