<svg width="298" height="298" viewBox="0 0 298 298" fill="none" xmlns="http://www.w3.org/2000/svg">
<path d="M45.9805 249.497H90.7969V114.854H45.9805V249.497ZM93.707 73.3359C93.5777 66.6102 91.2496 61.0486 86.7227 56.651C82.1957 52.2535 76.1814 50.0547 68.6797 50.0547C61.178 50.0547 55.0666 52.2535 50.3457 56.651C45.6248 61.0486 43.2643 66.6102 43.2643 73.3359C43.2643 79.9323 45.5601 85.4616 50.1517 89.9238C54.7433 94.3861 60.7253 96.6172 68.0977 96.6172H68.2917C75.9227 96.6172 82.0664 94.3861 86.7227 89.9238C91.3789 85.4616 93.707 79.9323 93.707 73.3359ZM207.203 249.497H252.02V172.281C252.02 152.363 247.299 137.295 237.857 127.077C228.415 116.859 215.934 111.75 200.413 111.75C182.822 111.75 169.306 119.316 159.865 134.449H160.253V114.854H115.436C115.824 123.391 115.824 168.272 115.436 249.497H160.253V174.221C160.253 169.306 160.705 165.685 161.611 163.357C163.551 158.83 166.461 154.982 170.341 151.813C174.221 148.644 179.007 147.06 184.698 147.06C199.701 147.06 207.203 157.213 207.203 177.52V249.497ZM298 55.875V242.125C298 257.517 292.535 270.677 281.606 281.606C270.677 292.535 257.517 298 242.125 298H55.875C40.4835 298 27.3231 292.535 16.3939 281.606C5.46463 270.677 0 257.517 0 242.125V55.875C0 40.4835 5.46463 27.3231 16.3939 16.3939C27.3231 5.46463 40.4835 0 55.875 0H242.125C257.517 0 270.677 5.46463 281.606 16.3939C292.535 27.3231 298 40.4835 298 55.875Z" fill="#444444" fill-opacity="0.8"/>
</svg>
